<?xml version="1.0"?>
<svg xmlns:rdf="http://www.w3.org/1999/02/22-rdf-syntax-ns#" xmlns="http://www.w3.org/2000/svg" xmlns:cc="http://web.resource.org/cc/" xmlns:dc="http://purl.org/dc/elements/1.1/" xmlns:svg="http://www.w3.org/2000/svg" id="Layer_1" style="enable-background:new 0 0 122.365 138.398" space="preserve" viewBox="0 0 122.365 138.398" version="1.1">
  <g id="g3">
    <radialGradient id="XMLID_2_" gradientUnits="userSpaceOnUse" cy="60.706" cx="59.188" r="67.026">
      <stop id="stop6" stop-color="#FFCE00" offset=".0056"/>
      <stop id="stop8" stop-color="#FDCB00" offset=".3793"/>
      <stop id="stop10" stop-color="#F7C300" offset=".6104"/>
      <stop id="stop12" stop-color="#ECB400" offset=".8027"/>
      <stop id="stop14" stop-color="#DCA000" offset=".9728"/>
      <stop id="stop16" stop-color="#D99C00" offset="1"/>
    </radialGradient>
    <path id="path18" fill="url(#XMLID_2_)" d="m117.8 32.523c-14.551-8.589-29.101-17.176-43.649-25.765-5.78-3.414-12.231-8.485-19.172-4.388-6.19 3.653-12.377 7.306-18.565 10.959-8.861 5.229-17.722 10.459-26.583 15.689-5.715 3.375-6.988 3.888-7.702 10.922-1.487 14.64-1.21 29.54-1.147 44.234 0.023 5.138-1.715 16.087 1.055 19.988 1.12 1.797 3.9 2.938 5.652 3.973 15.531 9.167 31.059 18.333 46.59 27.5 6.514 3.844 11.848 0.764 17.45-2.544 8.681-5.121 17.359-10.245 26.04-15.368 6.466-3.816 12.935-7.634 19.401-11.45 4.833-2.853 3.821-7.67 3.942-12.445 0.274-10.789 0.396-21.589 0.167-32.381-0.186-8.677 0.361-18.91-2.61-27.218-0.21-0.591-0.47-1.204-0.87-1.703"/>
    <path id="path20" fill="#C68526" d="m54.705 1.589c-16.677 9.843-33.353 19.686-50.03 29.529-4.813 2.841-3.761 13.247-3.998 17.944-0.364 7.238-1.634 55.545 0.67 55.529 2.89 4.651 12.027 7.844 16.461 10.46 9.181 5.419 18.362 10.84 27.543 16.259 6.351 3.749 13.996 10.031 21.642 5.52 5.66-2.693 11.017-6.503 16.409-9.686 9.02-5.323 18.037-10.645 27.056-15.968 2.591-1.53 11.068-5.215 11.213-9.036 0.711-18.771 1.248-37.804-0.35-56.537-0.287-3.347-0.071-11.99-3.519-14.025-6.069-3.583-12.138-7.164-18.208-10.747-8.332-4.909-16.669-9.831-25.007-14.752-5.984-3.531-12.7-8.716-19.88-4.48m-52.934 76.699c0-13.584-0.413-27.597 1.487-41.096 0.7-4.974 3.583-5.467 7.801-7.958 14.812-8.743 29.623-17.485 44.434-26.227 6.964-4.111 14.428 2.191 20.191 5.595 9.261 5.465 18.524 10.933 27.786 16.398 4.087 2.415 13.354 5.487 14.765 10.514 2.024 7.227 1.919 15.296 2.14 22.733 0.318 10.746 0.246 21.506 0.016 32.252-0.124 5.729 0.734 10.228-3.087 14.564-0.787 0.893-2.054 1.401-3.067 2-6.226 3.674-12.452 7.35-18.678 11.024-7.232 4.271-14.466 8.539-21.698 12.809-5.104 3.012-10.399 7.379-16.727 5.26-4.172-1.399-8.152-4.587-11.895-6.796-7.782-4.596-15.563-9.188-23.346-13.782-5.464-3.225-10.928-6.449-16.392-9.674-1.304-0.77-2.229-1.953-3.503-2.707-0.144-8.294-0.23-16.598-0.23-24.902"/>
    <path id="path22" fill="#FFF61A" d="m74.842 64.921c13.288-5.6 25.354-13.571 38.141-20.149 0.397-0.204 6.249-2.83 4.29-0.863-2.998 3.01-7.123 5.197-10.639 7.523-10.844 7.182-22.606 14.229-31.607 23.742-7.36 7.779-7.103 21.195-8.02 31.216-0.393 4.275-0.474 8.909-1.785 13.032-1.088 3.418-2.731 1.063-3.253-1.203-2.533-11.015-1.646-22.539-5.128-33.423-4.266-13.329-20.451-22.067-31.55-29.219-4.916-3.169-9.975-6.121-14.849-9.353-0.752-0.498-5.65-4.272-1.948-3.043 9.219 3.062 17.894 8.861 26.585 13.131 6.544 3.213 13.166 6.292 19.96 8.945 7.365 2.873 12.457 2.765 19.807-0.337"/>
    <path id="path24" fill="#FFE600" d="m117.07 34.281c0-1.327-7.271-4.915-8.235-5.521-6.197-3.892-12.468-7.669-18.779-11.369-6.73-3.947-13.512-7.824-20.433-11.427-3.207-1.669-7.182-5.015-10.842-3.52-10.403 4.247-20.191 10.642-29.834 16.34-5.233 3.091-10.443 6.222-15.607 9.428-0.842 0.523-7.361 3.706-7.361 4.851 0-1.506 19.243-10.047 21.025-11.007 10.241-5.516 20.421-11.325 30.986-16.219 3.967-1.839 5.859 0.213 9.725 2.236 7.026 3.679 14.005 7.455 20.98 11.234 6.554 3.547 13.095 7.119 19.67 10.628 0.63 0.335 8.7 3.942 8.7 4.346"/>
    <path id="path26" fill="#FFB600" d="m4.764 104.27c0 1.326 7.271 4.914 8.235 5.521 6.198 3.892 12.468 7.669 18.779 11.368 6.731 3.946 13.513 7.824 20.434 11.427 3.206 1.67 7.181 5.015 10.84 3.52 10.404-4.247 20.192-10.642 29.836-16.339 5.232-3.093 10.442-6.224 15.606-9.429 0.842-0.523 7.361-3.706 7.361-4.852 0 1.506-19.243 10.048-21.024 11.008-10.246 5.518-20.426 11.326-30.99 16.221-3.968 1.839-5.859-0.214-9.724-2.236-7.027-3.68-14.005-7.454-20.982-11.233-6.553-3.548-13.094-7.119-19.669-10.63-0.62-0.34-8.697-3.94-8.697-4.35"/>
  </g>
  <metadata>
    <rdf:RDF>
      <cc:Work>
        <dc:format>image/svg+xml</dc:format>
        <dc:type rdf:resource="http://purl.org/dc/dcmitype/StillImage"/>
        <cc:license rdf:resource="http://creativecommons.org/licenses/publicdomain/"/>
        <dc:publisher>
          <cc:Agent rdf:about="http://openclipart.org/">
            <dc:title>Openclipart</dc:title>
          </cc:Agent>
        </dc:publisher>
        <dc:title>Architetto -- cubo giallo</dc:title>
        <dc:date>2009-05-01T20:59:38</dc:date>
        <dc:description>Yellow cube/block by Francesco 'Architetto' Rollandin.</dc:description>
        <dc:source>http://openclipart.org/detail/25689/architetto----cubo-giallo-by-anonymous-25689</dc:source>
        <dc:creator>
          <cc:Agent>
            <dc:title>Anonymous</dc:title>
          </cc:Agent>
        </dc:creator>
        <dc:subject>
          <rdf:Bag>
            <rdf:li>abstract</rdf:li>
            <rdf:li>block</rdf:li>
            <rdf:li>clip art</rdf:li>
            <rdf:li>clipart</rdf:li>
            <rdf:li>cube</rdf:li>
            <rdf:li>image</rdf:li>
            <rdf:li>media</rdf:li>
            <rdf:li>png</rdf:li>
            <rdf:li>public domain</rdf:li>
            <rdf:li>svg</rdf:li>
            <rdf:li>yellow</rdf:li>
          </rdf:Bag>
        </dc:subject>
      </cc:Work>
      <cc:License rdf:about="http://creativecommons.org/licenses/publicdomain/">
        <cc:permits rdf:resource="http://creativecommons.org/ns#Reproduction"/>
        <cc:permits rdf:resource="http://creativecommons.org/ns#Distribution"/>
        <cc:permits rdf:resource="http://creativecommons.org/ns#DerivativeWorks"/>
      </cc:License>
    </rdf:RDF>
  </metadata>
</svg>
